<?xml version="1.0" standalone="no"?>
<!DOCTYPE svg PUBLIC "-//W3C//DTD SVG 20010904//EN"
 "http://www.w3.org/TR/2001/REC-SVG-20010904/DTD/svg10.dtd">
<svg version="1.0" xmlns="http://www.w3.org/2000/svg"
 width="690.000000pt" height="378.000000pt" viewBox="0 0 690.000000 378.000000"
 preserveAspectRatio="xMidYMid meet">

<g transform="translate(0.000000,378.000000) scale(0.100000,-0.100000)"
fill="#000000" stroke="none">
<path d="M902 1893 l3 -408 405 0 405 0 3 408 2 407 -410 0 -410 0 2 -407z
m501 271 c56 -19 131 -83 157 -135 35 -69 43 -130 26 -198 -26 -102 -81 -165
-178 -206 -44 -18 -149 -19 -195 -2 -133 49 -215 195 -184 330 37 169 211 267
374 211z"/>
<path d="M2018 2133 c-3 -4 20 -117 51 -250 l55 -243 33 0 c19 0 43 9 58 23
23 19 32 45 65 200 35 166 44 197 53 186 2 -2 20 -82 41 -177 20 -96 41 -183
47 -193 20 -38 103 -53 113 -21 8 28 106 464 106 473 0 12 -24 11 -54 -2 -31
-14 -39 -35 -72 -184 -15 -66 -30 -126 -34 -133 -3 -7 -19 47 -34 120 -37 177
-49 197 -116 198 -71 0 -87 -25 -121 -195 -12 -60 -25 -116 -28 -123 -4 -7
-22 55 -41 138 -19 88 -40 156 -49 164 -20 18 -67 30 -73 19z"/>
<path d="M2738 2133 c-9 -2 -19 -10 -22 -18 -3 -8 -6 -117 -7 -242 l-2 -228
23 -3 c12 -2 30 4 41 14 18 16 19 33 19 251 0 252 3 241 -52 226z"/>
<path d="M2860 2130 c0 -6 36 -63 80 -126 l79 -116 -85 -124 -85 -124 40 0
c60 0 68 6 126 92 l53 79 56 -79 c31 -44 63 -83 72 -86 19 -7 84 -8 84 -1 0 3
-36 59 -80 125 l-80 119 80 117 c44 65 80 121 80 126 0 11 -53 10 -82 -1 -13
-5 -45 -43 -73 -85 -27 -41 -53 -76 -56 -76 -4 0 -26 29 -49 65 -24 36 -54 75
-68 85 -26 21 -92 28 -92 10z"/>
<path d="M3499 2107 c-34 -18 -48 -34 -62 -68 -17 -41 -18 -48 -4 -81 19 -46
64 -70 172 -92 91 -18 129 -41 133 -80 7 -57 -56 -106 -135 -106 -43 0 -112
29 -141 58 -20 20 -21 20 -38 1 -22 -25 -9 -40 64 -76 44 -21 69 -27 121 -27
112 1 181 56 181 142 -1 78 -44 112 -176 138 -109 20 -134 36 -134 85 0 55 86
97 163 79 37 -8 67 -27 94 -59 11 -12 15 -12 33 4 19 17 19 19 4 36 -9 10 -39
30 -67 44 -68 33 -147 34 -208 2z"/>
<path d="M5481 2116 c-143 -52 -200 -230 -117 -368 65 -107 207 -144 324 -85
118 61 165 214 103 336 -26 50 -90 104 -140 119 -49 15 -126 14 -170 -2z m179
-52 c35 -17 77 -63 90 -99 6 -16 11 -56 11 -87 0 -73 -28 -129 -83 -165 -35
-24 -52 -28 -108 -28 -55 0 -73 5 -107 27 -106 70 -113 248 -13 332 29 24 41
29 95 39 29 5 86 -4 115 -19z"/>
<path d="M3832 2098 c3 -20 8 -21 80 -19 l78 2 2 -218 3 -218 23 0 23 0 2 215
2 215 78 0 c73 0 77 1 77 23 l0 22 -186 0 c-184 0 -185 0 -182 -22z"/>
<path d="M4260 1947 c0 -159 2 -176 23 -217 39 -79 117 -111 217 -89 62 13
110 57 128 116 7 24 12 104 12 202 l0 161 -25 0 -25 0 0 -162 c0 -137 -3 -170
-19 -204 -44 -96 -196 -98 -243 -4 -15 29 -18 63 -18 203 l0 167 -25 0 -25 0
0 -173z"/>
<path d="M4722 1884 l3 -239 64 -3 c193 -9 302 54 331 192 21 102 -22 203
-109 254 -42 25 -57 27 -169 31 l-122 3 2 -238z m268 160 c19 -11 45 -38 58
-60 19 -32 22 -51 20 -110 -3 -59 -8 -77 -31 -107 -40 -53 -79 -70 -174 -75
l-83 -5 0 194 0 194 87 -5 c64 -4 98 -11 123 -26z"/>
<path d="M5200 1880 l0 -240 25 0 25 0 0 240 0 240 -25 0 -25 0 0 -240z"/>
</g>
</svg>
