<?xml version="1.0" standalone="no"?>
<!DOCTYPE svg PUBLIC "-//W3C//DTD SVG 20010904//EN"
 "http://www.w3.org/TR/2001/REC-SVG-20010904/DTD/svg10.dtd">
<svg version="1.0" xmlns="http://www.w3.org/2000/svg"
 width="800.000000pt" height="225.000000pt" viewBox="0 0 800.000000 225.000000"
 preserveAspectRatio="xMidYMid meet">

<g transform="translate(0.000000,225.000000) scale(0.100000,-0.100000)"
fill="#000000" stroke="none">
<path d="M3290 1656 c-149 -42 -230 -133 -230 -257 0 -73 22 -130 66 -171 38
-35 141 -81 229 -102 39 -9 115 -27 171 -40 55 -13 123 -34 151 -46 93 -40
141 -115 126 -200 -18 -106 -100 -166 -259 -190 -164 -25 -325 23 -431 129
l-40 40 -22 -23 -22 -23 58 -53 c129 -119 323 -166 514 -126 121 26 219 94
254 178 23 56 20 155 -7 208 -42 83 -136 129 -377 185 -227 52 -300 86 -336
156 -37 70 -4 178 68 228 145 99 387 85 539 -32 l46 -35 22 23 21 23 -43 35
c-95 77 -196 107 -349 106 -57 0 -124 -6 -149 -13z"/>
<path d="M7296 1655 c-178 -49 -313 -188 -361 -372 -18 -67 -20 -220 -4 -295
39 -190 194 -349 385 -394 94 -22 246 -15 329 16 213 80 338 270 338 515 0
110 -15 178 -59 271 -62 127 -194 231 -334 263 -63 15 -235 12 -294 -4z m357
-87 c87 -42 131 -79 182 -152 49 -72 75 -152 82 -256 19 -306 -205 -540 -497
-516 -137 11 -226 52 -313 145 -170 181 -164 511 12 687 99 99 201 136 359
130 92 -3 110 -7 175 -38z"/>
<path d="M10 1649 c0 -7 54 -251 120 -541 66 -290 120 -530 120 -533 0 -11
133 -4 164 9 37 15 71 48 91 86 7 14 50 196 95 405 44 209 85 384 91 390 6 5
13 5 19 -1 6 -6 47 -179 90 -385 44 -206 85 -386 91 -400 13 -34 66 -85 102
-98 16 -6 57 -11 91 -11 l64 0 10 43 c32 128 232 1017 232 1031 0 37 -120 11
-168 -38 -34 -34 -37 -42 -113 -373 -42 -186 -79 -331 -82 -323 -3 8 -33 146
-66 305 -38 178 -70 307 -84 335 -65 128 -259 139 -342 20 -26 -38 -43 -105
-121 -477 -21 -101 -41 -183 -44 -183 -3 0 -36 138 -74 308 -38 169 -77 326
-88 349 -24 53 -68 80 -141 89 -45 5 -57 4 -57 -7z"/>
<path d="M1614 1650 c-16 -5 -41 -21 -55 -36 l-24 -26 -3 -509 -3 -509 51 0
c28 0 64 7 80 15 61 32 60 25 58 572 l-3 498 -35 2 c-19 1 -49 -2 -66 -7z"/>
<path d="M1862 1649 c3 -8 68 -106 145 -219 77 -113 157 -231 177 -262 l38
-57 -182 -268 -181 -268 86 -3 c129 -4 135 0 267 194 61 90 116 164 123 164 6
0 62 -75 125 -166 131 -194 135 -196 266 -192 l85 3 -181 268 -182 269 48 71
c26 40 106 158 177 262 71 105 132 196 134 203 6 15 -110 17 -170 3 -54 -13
-71 -32 -189 -207 -57 -84 -107 -153 -113 -153 -5 0 -59 73 -120 161 -60 89
-122 170 -137 181 -34 25 -225 39 -216 16z"/>
<path d="M3860 1625 l0 -35 195 0 195 0 0 -495 0 -495 35 0 35 0 0 495 0 495
195 0 195 0 0 35 0 35 -425 0 -425 0 0 -35z"/>
<path d="M4790 1311 c0 -191 5 -373 10 -402 39 -210 218 -342 443 -326 183 12
324 135 362 313 11 53 15 151 15 417 l0 347 -34 0 -35 0 -3 -382 c-3 -374 -4
-384 -26 -432 -67 -146 -214 -222 -376 -196 -121 19 -207 85 -258 196 -22 48
-23 58 -26 432 l-3 382 -34 0 -35 0 0 -349z"/>
<path d="M5727 1653 c-4 -3 -7 -242 -7 -530 l0 -523 228 0 c253 0 302 8 405
62 201 107 304 348 253 590 -22 100 -62 174 -136 249 -125 126 -238 159 -543
159 -106 0 -197 -3 -200 -7z m533 -91 c124 -50 215 -141 261 -261 25 -68 35
-195 21 -272 -34 -178 -181 -325 -361 -359 -30 -5 -130 -10 -222 -10 l-169 0
0 466 0 466 208 -4 c185 -3 213 -6 262 -26z"/>
<path d="M6730 1130 l0 -530 35 0 35 0 0 530 0 530 -35 0 -35 0 0 -530z"/>
</g>
</svg>
