<?xml version="1.0" standalone="no"?>
<!DOCTYPE svg PUBLIC "-//W3C//DTD SVG 20010904//EN"
 "http://www.w3.org/TR/2001/REC-SVG-20010904/DTD/svg10.dtd">
<svg version="1.0" xmlns="http://www.w3.org/2000/svg"
 width="600.000000pt" height="315.000000pt" viewBox="0 0 600.000000 315.000000"
 preserveAspectRatio="xMidYMid meet">

<g transform="translate(0.000000,315.000000) scale(0.100000,-0.100000)"
fill="#000000" stroke="none">
<path d="M2055 2718 c-3 -7 -4 -436 -3 -953 l3 -940 949 -3 c753 -2 951 0 958
10 9 15 11 1858 2 1882 -6 14 -99 16 -955 16 -751 0 -951 -3 -954 -12z m1100
-293 c249 -53 457 -261 510 -510 107 -504 -365 -935 -855 -779 -197 62 -355
214 -426 408 -39 108 -49 218 -31 327 33 196 122 339 281 450 148 105 338 143
521 104z"/>
<path d="M2072 583 c10 -49 23 -104 27 -123 5 -25 13 -36 27 -38 31 -4 41 15
60 111 9 48 20 87 24 87 3 0 14 -39 23 -86 18 -94 30 -116 61 -112 17 3 24 21
46 123 15 66 26 122 24 123 -1 2 -11 1 -22 -2 -15 -5 -24 -26 -39 -89 l-19
-82 -12 60 c-15 74 -32 109 -56 113 -20 4 -56 -24 -56 -44 0 -7 -5 -36 -11
-65 -13 -58 -22 -52 -34 21 -8 51 -29 90 -49 90 -11 0 -10 -16 6 -87z"/>
<path d="M2407 663 c-4 -3 -7 -60 -7 -125 0 -108 2 -119 18 -116 15 3 17 18
20 126 2 98 0 122 -11 122 -8 0 -17 -3 -20 -7z"/>
<path d="M2501 633 c12 -21 31 -49 41 -62 10 -13 15 -28 11 -35 -4 -6 -22 -35
-40 -63 l-34 -53 26 0 c18 0 31 11 50 40 14 22 27 40 29 40 2 0 15 -18 30 -40
16 -24 34 -40 46 -40 27 0 26 7 -16 68 l-35 53 41 64 c39 64 40 65 17 65 -17
0 -33 -12 -52 -40 -15 -22 -30 -40 -34 -40 -3 0 -16 18 -29 40 -17 30 -29 40
-48 40 l-26 0 23 -37z"/>
<path d="M2786 649 c-34 -26 -36 -73 -3 -93 12 -7 40 -17 62 -21 50 -8 65 -21
65 -51 0 -16 -8 -28 -24 -35 -29 -14 -89 -4 -106 16 -12 15 -30 12 -30 -5 0
-17 58 -40 98 -40 86 0 125 80 60 120 -18 11 -45 20 -59 20 -15 0 -37 8 -49
18 -19 15 -21 22 -12 39 19 36 95 38 117 4 9 -16 25 -13 25 4 0 19 -51 45 -88
45 -16 0 -41 -9 -56 -21z"/>
<path d="M3785 660 c-38 -15 -67 -57 -72 -103 -10 -82 42 -137 127 -137 52 0
108 48 116 100 16 97 -83 177 -171 140z m89 -24 c40 -17 61 -62 53 -113 -9
-54 -38 -78 -93 -78 -59 0 -94 36 -94 96 0 52 14 77 53 94 40 18 41 18 81 1z"/>
<path d="M2960 650 c0 -5 18 -10 40 -10 l39 0 3 -107 c2 -64 7 -108 13 -108 6
0 11 44 13 108 l3 107 39 0 c22 0 40 5 40 10 0 6 -38 10 -95 10 -57 0 -95 -4
-95 -10z"/>
<path d="M3170 585 c0 -118 28 -165 100 -165 72 0 100 47 100 165 0 60 -3 75
-15 75 -12 0 -15 -16 -15 -88 0 -101 -17 -132 -70 -132 -55 0 -70 28 -70 130
0 73 -3 90 -15 90 -12 0 -15 -15 -15 -75z"/>
<path d="M3410 539 l0 -121 65 4 c58 3 69 8 98 36 28 29 32 39 32 88 0 50 -3
58 -33 85 -29 26 -40 29 -97 29 l-65 0 0 -121z m123 89 c35 -18 46 -40 47 -86
0 -62 -32 -92 -100 -92 l-50 0 0 88 c0 49 3 92 7 95 10 11 73 8 96 -5z"/>
<path d="M3650 540 c0 -73 4 -120 10 -120 6 0 10 47 10 120 0 73 -4 120 -10
120 -6 0 -10 -47 -10 -120z"/>
</g>
</svg>
